<?xml version="1.0" encoding="utf-8"?>
<!-- Generator: Adobe Illustrator 22.0.1, SVG Export Plug-In . SVG Version: 6.00 Build 0)  -->
<svg version="1.1" id="Layer_1" xmlns="http://www.w3.org/2000/svg" xmlns:xlink="http://www.w3.org/1999/xlink" x="0px" y="0px"
	 viewBox="0 0 640 480" style="enable-background:new 0 0 640 480;" xml:space="preserve">
<style type="text/css">
	.st0{fill:#35D32F;}
	.st1{fill:none;}
</style>
<g>
	<g>
		<path class="st0" d="M407.4,356.9h3.8v0.8h-1.5v4.5h-0.8v-4.5h-1.5L407.4,356.9z"/>
		<path class="st0" d="M412.6,356.9h1.5l1.2,4.1l1.1-4.1h1.5v5.2H417v-4.3l0,0l-1.2,4.1h-0.9l-1.2-4.1h-0.2v4.3h-0.8L412.6,356.9z"
			/>
		<path class="st0" d="M328.8,114.2c-1,7.7-5.1,24.1-3.1,34c2.6,12.7,12.4,12,16,5.8c2.4-4.9,2.9-10.5,1.5-15.8
			C341,128.9,336,120.5,328.8,114.2z M337.5,150.6c-1.2,2.7-4.9,2.7-6.2-3.3c-1.2-5.4,0.5-15.7,1.1-20.3c2.5,3.8,4.3,8.1,5.4,12.5
			C338.7,143.1,338.6,147,337.5,150.6z"/>
		<path class="st0" d="M325.6,174.3c-5.4,0.4-10.6,2.7-14.4,6.5c-7,6.5-11.7,15-13.6,24.4c7.1-3,23.4-7.6,31-14.3
			C338.3,182.4,332.8,174.3,325.6,174.3z M325,186.7c-4,3.7-13.9,7.4-18.1,9.2c2.1-4.1,4.8-7.8,8.2-10.9c2.6-2.7,6-4.6,9.8-5.4
			C327.7,179.2,329.6,182.4,325,186.7L325,186.7z"/>
		<path class="st0" d="M486.7,25.6c-0.5-0.7-1.1-1.3-1.8-1.8c0.7-3-1.3-6.1-4.3-6.7c-1.9-0.4-3.9,0.2-5.3,1.6l-3.1,3.2l-5.9,2.3
			c-2-0.7-4.1-0.8-6.1-0.2c-0.8,0.3-1.7,0.3-2.5,0c-2.7-0.6-5.6-0.4-8.3,0.5c-1.8,0-3.5,0.3-5.2,0.9c-2.5,1-4.6,2.7-6,4.9l-0.5,0.7
			c-8.1,2.1-11.7,6.6-13.2,10c-0.5,1.1-0.8,2.2-1,3.3c-1.5-1.1-3.1-2.1-4.8-2.9c-9.4-4.3-21.6-2.5-30.2,4.5
			c-9.2,7.5-12.9,18.9-10.1,31.5c1.3,5.4,3.4,10.6,6.2,15.4c6.4,11.1,16.1,21.3,25.5,31.2c8.3,8.7,16.1,17,20.5,24.7
			c0.3,0.5,0.6,1,0.8,1.4c5.8,11,4.7,19.1-3.2,24.1c-2.5,1.6-5.4,2.6-8.4,2.9c2.8-8.2,4-19.7-2.1-30.3c-1.2-2.1-2.7-4.1-4.3-5.9
			c-11.6-12.7-23.9-9.9-28.8-6.6c-2.2,1.5-3.1,4.2-2.1,6.6c0.1,0.3,0.2,0.6,0.4,0.9c1.1,1.9,3.3,3,5.5,2.8
			c5.1-0.6,10.8,2.8,14.1,8.5c3.3,5.6,3.3,12.7-0.1,18.2c-2.8-2.3-5.4-4.8-7.9-7.5l-1-1.1l-0.6-0.6c-9.6-10.5-19-16.5-28.1-17.7
			c-0.2-7.5-2.2-14.8-6-21.3c-4.8-8.7-11.7-16.1-19.9-21.7c-1.2-0.9-2.5-1.7-3.9-2.4c-3.1-23.8-18.9-36.1-33-39.7
			c-16.6-4.4-34.1,2.3-43.4,16.7c-0.8,1.2-1.6,2.5-2.4,3.9c-7.1,12.4-11.2,26.8-15.2,40.7c-3.4,11.8-6.5,23-11.3,32.1l-0.9,1.5
			c-3.2,5.5-6,8.5-8.9,9.5c-1.9,0.6-3.9,0.3-5.5-0.9c-3-2-2.3-6.2,0.4-14.2c0.8-2.1,1.4-4.3,1.9-6.6c1-4.8-0.1-9.9-3-13.9
			c-2.8-3.5-7-5.7-11.5-6c-4.5-0.4-11.1,1.1-16.6,10.6c-0.5,0.8-0.9,1.6-1.2,2.2c-1.4-4.4-4.9-7.8-9.4-9.1c-2.3-1.7-5-2.7-7.8-2.9
			c-0.9,0-1.7-0.3-2.5-0.8c-1.9-1.2-4.1-1.7-6.4-1.5l-4.8-3.8l-2.1-4c-1.4-2.8-4.8-3.9-7.6-2.4c-1,0.5-1.7,1.3-2.3,2.2
			c-0.4,0.8-0.7,1.6-0.8,2.5c-1.3,0.4-2.5,1.3-3.2,2.6c-0.4,0.7-0.6,1.4-0.7,2.1c-0.3,2.8,1.5,5.5,4.3,6.2l4.4,1.1l5,3.9
			c0.4,2,1.4,3.9,2.9,5.4c0.6,0.6,1.1,1.3,1.3,2.1c0.8,2.7,2.4,5.1,4.6,7c0.9,1.5,2,2.9,3.4,4c2.1,1.7,4.7,2.6,7.3,2.8l0.9,0.1
			c5.9,6,11.5,6.8,15.3,6.4c1.1-0.1,2.3-0.4,3.4-0.8c-0.2,1.9-0.2,3.7-0.1,5.6c1,10.3,8.6,20,19,24c11,4.3,22.8,1.8,32.3-7
			c4.1-3.8,7.5-8.2,10.2-13.1c6.4-11.1,10.4-24.6,14.3-37.7c3.4-11.5,6.6-22.4,11.1-30.2l0.8-1.4c6.7-10.5,14.3-13.7,22.5-9.3
			c2.6,1.4,4.9,3.4,6.7,5.8c-8.5,1.7-19,6.3-25.1,17c-1.2,2.1-2.2,4.4-3,6.8c-5.2,16.4,3.4,25.6,8.7,28.2c2.8,1.4,6.2,0.2,7.6-2.6
			c0.9-1.9,0.7-4.2-0.6-5.9c-3.1-4.1-3-10.7,0.3-16.5c3.2-5.7,9.3-9.1,15.9-8.9c-0.6,3.6-1.4,7.1-2.5,10.5c-0.2,0.5-0.3,0.9-0.4,1.4
			c-0.1,0.4-0.1,0.5-0.3,0.8c-4.3,13.6-4.8,24.7-1.3,33.2c-6.4,3.9-11.7,9.3-15.4,15.8c-5.1,8.5-8.1,18.1-8.8,28.1
			c-0.1,1.5-0.1,3,0,4.5c-19.1,14.6-21.9,34.4-17.9,48.4c4.4,16.6,19,28.4,36.2,29.3c1.5,0,3,0.1,4.6,0.1c14.3,0,28.8-3.6,42.9-7.1
			c12-3,23.2-5.8,33.4-6.2h1.8c6.3,0,10.3,0.9,12.7,3c1.5,1.3,2.2,3.3,1.9,5.2c-0.3,3.6-4.3,5.1-12.5,6.8c-2.2,0.4-4.5,1-6.6,1.7
			c-4.7,1.5-8.5,5-10.5,9.5c-1.7,4.2-1.5,9,0.6,13c1.9,4.1,6.5,9,17.4,9c0.9,0,1.8,0,2.4,0c-1.9,2.1-3.1,4.6-3.6,7.4
			c-0.3,1.8-0.2,3.6,0.3,5.4c-0.3,2.8,0.1,5.6,1.4,8.2c0.4,0.8,0.6,1.7,0.6,2.6c0,2.2,0.7,4.4,1.9,6.2l-0.9,6l-2.4,3.8
			c-1.7,2.6-0.9,6.1,1.7,7.8c0.9,0.6,2,0.9,3,0.9c0.9,0,1.7-0.2,2.5-0.6c1,1,2.4,1.5,3.8,1.5c0.7,0,1.5-0.2,2.2-0.4
			c2.6-1.1,4-4,3.2-6.8l-1.3-4.4l0.9-6.3c1.6-1.4,2.7-3.2,3.2-5.2c0.2-0.8,0.6-1.6,1.2-2.2c1.9-2.1,3.2-4.6,3.7-7.4
			c0.9-1.5,1.5-3.2,1.8-5c0.4-2.6-0.1-5.3-1.3-7.7c-0.1-0.3-0.2-0.6-0.3-0.8c2.3-8.1,0.1-13.4-2.1-16.4c-0.7-0.9-1.5-1.8-2.3-2.5
			c1.7-0.7,3.3-1.6,4.9-2.7c8.5-6,13-17.4,11.3-28.4c-1.8-11.7-10-20.6-22.3-24.5c-5.3-1.6-10.9-2.4-16.4-2.3
			c-12.8,0-26.5,3.3-39.8,6.4c-11.7,2.8-22.8,5.4-31.7,5.4h-1.6c-12.5-0.5-18.9-5.5-19.3-14.8c-0.1-3,0.5-6,1.6-8.7
			c5.7,6.5,15,13.3,27.3,13.3c2.5,0,4.9-0.3,7.3-0.8c16.8-3.7,20.5-15.7,20.1-21.6c-0.2-3.1-2.9-5.4-6.1-5.2c-2.1,0.2-4,1.5-4.8,3.4
			c-2,4.8-7.8,8-14.4,8c-6.5,0.1-12.6-3.5-15.7-9.2c3.4-1.3,6.9-2.3,10.5-3.1l1.4-0.3l0.8-0.2c13.9-3.1,23.8-8.2,29.4-15.5
			c6.6,3.6,14,5.4,21.4,5.5c9.9,0.1,19.8-2,28.7-6.4c1.4-0.7,2.7-1.4,4-2.2c22.2,9.2,40.7,1.8,50.9-8.7c12.1-12.2,14.9-30.9,7-46.2
			c-0.7-1.3-1.4-2.7-2.2-4c-7.1-12.4-17.6-23.1-27.6-33.5c-8.6-8.9-16.7-17.2-22.1-25.8c-0.3-0.5-0.6-1-0.9-1.5
			c-3.2-5.5-4.4-9.4-3.7-12.5c0.4-1.9,1.8-3.5,3.6-4.3c3.3-1.6,6.5,1.1,12.1,7.4c1.5,1.7,3.1,3.3,4.8,4.9c3.7,3.3,8.6,4.9,13.5,4.4
			c4.5-0.7,8.5-3.2,11-7c2.6-3.7,4.6-10.2-0.9-19.7c-0.5-0.8-0.9-1.5-1.3-2.1c2.7,0.6,5.5,0.3,8.1-0.7c1.7-0.7,3.2-1.7,4.5-2.9
			c2.6-1.1,4.8-2.9,6.4-5.3c0.5-0.8,1.1-1.4,1.9-1.8c1.9-1.1,3.5-2.7,4.4-4.8l5.6-2.3l4.6,0.2c2.9,0.1,5.4-2,5.8-4.8
			C487.6,27.9,487.3,26.6,486.7,25.6z M476,28.1l-9.6,3.8c0.2,1.7-0.7,3.3-2.3,4c-4.6,2.7-2.9,4.7-8.5,7.1c-1.2,0.5-0.2,1-3.7,2.6
			c-2.5,1.1-6.2-0.4-8.1,0c-1.9,0.4-6.3,2.7-3,7.9c1.5,2.3,7.1,10.2,2.8,16.3c-3.7,5.4-10.3,6.5-16.2,1.5
			c-5.4-4.5-12.9-17.9-22.9-13.1c-10.4,5-7.3,16.6-1.2,26.3c12.9,20.6,39.6,39,51.6,62.9c14.7,29.3-16.2,63.5-53.7,45.6
			c-1.8,1.4-3.8,2.6-5.8,3.6c-16.1,7.8-37,8.4-49.4-2.1c-5.8,13.8-26.3,17.4-29.8,18.2c-6.2,1.1-12.2,3.2-17.9,6.1
			c7.1,23.6,36.2,21.3,42.6,6.3c0,0,0.8,12.1-15.7,15.7c-17.2,3.8-29.6-9.5-33.3-17c-4.8,5.1-7.4,11.9-7.1,18.9
			c0.4,10.1,6.7,19.6,24.7,20.3c24.4,0.9,62.3-17.9,88.1-9.8c23.2,7.3,22.8,33.4,9.4,42.9c-4.4,3.1-12.6,5.4-18,5.6
			c-2.7,0.1-2.9,1.4-2.6,2.1s1.8,1,4.1,0.8c8.6-0.8,17.7,4.2,13.7,17.1c-0.6,2,2.3,5.4,1.8,8c-0.8,3.8-1.5,3-1.7,4.2
			c-1,6.1-3.6,4.8-5,10c-0.3,1.5-1.4,2.8-3,3.1l-1.5,10.3l1.6,5.6l-2.8-4.6l-3.7,3.8l3.1-4.9l1.5-10.2c-1.6-0.7-2.5-2.3-2.3-3.9
			c0-5.4-2.6-4.9-1.9-11c0.2-1.2-0.7-0.6-0.4-4.5c0.2-2.7,3.4-5.2,4-7c0.6-1.9,0.8-6.8-5.4-6.5c-2.8,0.1-12.4,1.1-15.5-5.7
			c-2.8-5.9-0.5-12.1,6.8-14.8c6.6-2.4,21.9-2.3,22.8-13.3c0.9-11.5-10.7-14.7-22.2-14.3c-24.3,0.9-53.6,14.8-80.3,13.3
			c-32.7-1.9-46.9-45.8-12.6-69.4c-0.3-2.3-0.3-4.5-0.2-6.8c1.3-17.9,11.3-36.2,26.5-41.8c-9-11.9-1.9-31.4-0.9-34.9
			c2.1-5.9,3.3-12.2,3.6-18.5c-24-5.6-36.6,20.7-26.8,33.7c0,0-10.9-5.4-5.8-21.4c5.4-17,23-21,31.4-20.5c-2-6.7-6.5-12.3-12.7-15.7
			c-8.9-4.7-20.3-3.9-29.9,11.3c-13,20.6-15.5,62.9-35.5,81.2c-17.9,16.5-40.4,3.1-41.9-13.3c-0.5-5.4,1.8-13.6,4.1-18.4
			c1.2-2.4,0.2-3.2-0.5-3.3c-1-0.2-1.8,1-2.7,3.2c-3.6,7.8-12.5,13.3-21.6,3.3c-1.4-1.6-5.8-0.7-7.8-2.5c-2.9-2.6-1.9-2.8-2.8-3.6
			c-4.7-3.9-2.4-5.4-6.1-9.3c-1.2-1-1.7-2.6-1.2-4.1l-8.2-6.5l-5.6-1.4h5.4l-1.4-5l2.7,5.1l8.1,6.4c1.4-1,3.2-1,4.6,0
			c4.6,2.7,5.5,0.1,10.5,3.8c1,0.8,0.9-0.3,4.1,1.9c2.2,1.6,2.8,5.5,4.1,7c1.3,1.4,5.5,4.1,8.4-1.4c1.3-2.4,5.2-11.3,12.7-10.6
			c6.5,0.6,10.7,5.6,9.4,13.3c-1.2,6.9-8.9,20.1,0.2,26.4c9.5,6.5,18-1.9,23.4-12.1c11.4-21.4,14-53.8,28.6-76.1
			c18-27.3,63.1-17.7,66.4,23.7c2.1,0.9,4.2,2,6.1,3.3c14.8,10.1,25.7,27.9,22.9,43.8c14.9-1.8,28.2,14.1,30.7,16.7
			c4.1,4.8,8.9,9,14.2,12.4c16.9-18,0.4-42-15.9-40c0,0,10.1-6.7,21.4,5.7c12,13.2,6.7,30.4,2.1,37.5c6.9,1.6,14.1,0.4,20.1-3.3
			c8.6-5.4,13.6-15.6,5.2-31.5c-11.5-21.6-46.7-45-52.6-71.4c-5.4-23.8,17.5-36.5,32.5-29.6c4.9,2.3,10.9,8.3,13.9,12.7
			c1.5,2.3,2.6,1.8,3.1,1.2s0-2-1.4-3.9c-5-7-5.3-17.4,8-20.4c2.1-0.4,3.6-4.7,6.1-5.5c3.7-1.3,3.3-0.3,4.5-0.7
			c5.8-2.1,5.9,0.6,11.2-0.6c1.5-0.5,3.1-0.1,4.2,1.1l9.7-3.9l4-4.3l-2.8,4.6l5.1,1.3L476,28.1z"/>
		<path class="st0" d="M351.2,177.9c3,4.5,7.6,7.8,12.9,9.2c9.1,2.8,18.9,2.6,27.9-0.4c-6.2-4.8-18.3-16.5-27.8-19.7
			C351.9,162.9,347.6,171.7,351.2,177.9z M365.7,181.7c-3.7-0.9-7-2.8-9.5-5.6c-1.8-2.4,0-5.6,6-3.7c5.2,1.6,13.4,8.3,17.1,11.1
			C374.7,183.7,370.1,183.1,365.7,181.7L365.7,181.7z"/>
	</g>
	<g>
		<title>nommo-logo-02</title>
		<polygon class="st0" points="351.6,457.6 327.7,457.6 348.7,421.3 351.6,416.2 345.8,416.2 318.8,416.2 318.8,421.3 342.8,421.3 
			321.8,457.6 318.8,462.8 324.7,462.8 348.7,462.8 		"/>
		<polygon class="st0" points="416.8,416.2 384.2,416.2 384.2,421.3 413.8,421.3 		"/>
		<polygon class="st0" points="416.8,436.9 384.2,436.9 384.2,442.1 413.8,442.1 		"/>
		<polygon class="st0" points="416.8,457.6 384.2,457.6 384.2,462.8 413.8,462.8 		"/>
		<path class="st0" d="M482.2,430.5v-2.9c0-6.4-5.2-11.5-11.5-11.5h-21.1v46.6h5.1v-20.6h9.6l12,20.6h5.9L470,442.1h0.5
			c6.4,0.1,11.6-5,11.7-11.4C482.2,430.6,482.2,430.6,482.2,430.5z M454.6,421.3h16.1c3.5,0,6.4,2.9,6.4,6.4v2.9
			c0,3.5-2.9,6.4-6.4,6.4h-16.1V421.3z"/>
		<path class="st0" d="M220.8,430.5v-2.9c0-6.4-5.2-11.5-11.5-11.5h-21.1v46.6h5.1v-20.6h9.6l12,20.6h5.9l-12-20.8h0.5
			C215.6,441.9,220.7,436.8,220.8,430.5z M193.2,421.3h16.1c3.5,0,6.4,2.9,6.4,6.4v2.9c0,3.5-2.9,6.4-6.4,6.4h-16.1
			C193.2,437,193.2,421.3,193.2,421.3z"/>
		<polygon class="st0" points="256.4,462.8 269.7,429.8 283,462.8 288.6,462.8 272.4,423 269.7,416.2 266.9,423 250.9,462.8 		"/>
		<polygon class="st0" points="485.3,418.1 485.3,417.1 492.2,417.1 492.2,418.1 489.3,418.1 489.3,426.7 488.2,426.7 488.2,418.1 
					"/>
		<polygon class="st0" points="494.9,426.7 494.9,417.1 496.9,417.1 499.6,425.3 502.3,417.1 504.2,417.1 504.2,426.7 503.2,426.7 
			503.2,418.3 502.9,418.3 500.2,426.4 499,426.4 496.1,418.3 496,418.3 496,426.7 		"/>
	</g>
</g>
<rect x="120.7" y="3.4" class="st1" width="398.6" height="473.3"/>
</svg>
